<svg version="1.2" xmlns="http://www.w3.org/2000/svg" viewBox="0 0 64 64" width="64" height="64">
	<title>en-svg</title>
	<style>
		.s0 { fill: #142359 } 
		.s1 { fill: #bf2121 } 
		.s2 { fill: #ffffff } 
	</style>
	<g id="Unied_States">
		<path class="s0" d="m32 8v20.6h-23.8q0.3-1.9 0.9-3.7 0.5-1.8 1.4-3.5 0.8-1.7 1.9-3.3 1.1-1.5 2.5-2.9 0.3-0.3 0.6-0.6 0.3-0.3 0.6-0.6 0.3-0.3 0.7-0.5 0.3-0.3 0.6-0.6 1.6-1.2 3.3-2.1 1.8-0.9 3.6-1.5 1.9-0.7 3.8-1 1.9-0.3 3.9-0.3z"/>
		<path class="s1" d="m48.8 14.9h-16.8v-6.9q2.3 0 4.6 0.4 2.3 0.5 4.5 1.4 2.1 0.9 4.1 2.1 1.9 1.3 3.6 3z"/>
		<path class="s2" d="m53.7 21.7h-21.7v-6.8h16.8q0.7 0.7 1.4 1.5 0.7 0.8 1.3 1.7 0.7 0.8 1.2 1.7 0.5 1 1 1.9z"/>
		<path class="s1" d="m55.8 28.6h-23.8v-6.9h21.7q0.4 0.8 0.7 1.7 0.3 0.8 0.6 1.7 0.2 0.8 0.4 1.7 0.2 0.9 0.4 1.8z"/>
		<path class="s2" d="m56 32q0 0.4 0 0.9 0 0.4-0.1 0.8 0 0.4 0 0.9-0.1 0.4-0.2 0.8h-47.5q-0.1-0.8-0.1-1.7-0.1-0.8-0.1-1.7 0-0.9 0.1-1.7 0-0.9 0.2-1.7h47.5q0 0.4 0.1 0.8 0 0.5 0 0.9 0.1 0.4 0.1 0.8 0 0.5 0 0.9z"/>
		<path class="s1" d="m55.8 35.4q-0.2 0.9-0.4 1.8-0.2 0.9-0.4 1.7-0.3 0.9-0.6 1.7-0.3 0.9-0.7 1.7h-43.4q-0.4-0.8-0.7-1.7-0.3-0.8-0.6-1.7-0.2-0.8-0.4-1.7-0.2-0.9-0.4-1.8z"/>
		<path class="s1" d="m48.8 49.1c-2.2 2.2-4.9 3.9-7.7 5.1-2.9 1.2-6 1.8-9.1 1.8-3.1 0-6.2-0.6-9.1-1.8-2.8-1.2-5.5-2.9-7.7-5.1z"/>
		<path class="s2" d="m53.7 42.3q-0.5 0.9-1 1.9-0.5 0.9-1.2 1.7-0.6 0.9-1.3 1.7-0.7 0.8-1.4 1.5h-33.6q-0.7-0.7-1.4-1.5-0.7-0.8-1.3-1.7-0.7-0.8-1.2-1.7-0.5-1-1-1.9z"/>
		<path class="s2" d="m24.7 10.8l0.7 2.1h2.3l-1.9 1.3 0.7 2.2-1.8-1.3-1.8 1.3 0.7-2.2-1.8-1.3h2.2l0.7-2.1z"/>
		<path class="s2" d="m24.7 19.4l0.7 2.1h2.3l-1.9 1.4 0.7 2.1-1.8-1.3-1.8 1.3 0.7-2.1-1.8-1.4h2.2l0.7-2.1z"/>
		<path class="s2" d="m16.3 19.4l0.7 2.1h2.2l-1.8 1.4 0.7 2.1-1.8-1.3-1.8 1.3 0.7-2.1-1.9-1.4h2.3l0.7-2.1z"/>
		<path class="s2" d="m17.4 14.3l0.7 2.1-1.8-1.3-1.8 1.3 0.4-1.2q0.3-0.3 0.6-0.6 0.3-0.3 0.6-0.6 0.3-0.3 0.7-0.5 0.3-0.3 0.6-0.6h1.8z"/>
	</g>
</svg>