<svg version="1.2" xmlns="http://www.w3.org/2000/svg" viewBox="0 0 64 64" width="64" height="64">
	<title>ru-svg</title>
	<style>
		.s0 { fill: #ffffff } 
		.s1 { fill: #0036a7 } 
		.s2 { fill: #d62718 } 
	</style>
	<g id="Russia">
		<path class="s0" d="m56 32q0 1-0.1 2-0.1 1.1-0.2 2.1-0.2 1-0.5 2-0.2 0.9-0.6 1.9c-1.6 4.7-4.7 8.7-8.8 11.6-4 2.8-8.8 4.4-13.8 4.4-5 0-9.8-1.6-13.8-4.4-4.1-2.9-7.2-6.9-8.8-11.6q-0.7-1.9-1.1-3.9-0.3-2.1-0.3-4.1 0-2 0.3-4.1 0.4-2 1.1-3.9c1.6-4.7 4.7-8.7 8.8-11.6 4-2.8 8.8-4.4 13.8-4.4 5 0 9.8 1.6 13.8 4.4 4.1 2.9 7.2 6.9 8.8 11.6q0.4 1 0.6 1.9 0.3 1 0.5 2 0.1 1 0.2 2.1 0.1 1 0.1 2z"/>
		<path class="s1" d="m56 32q0 1-0.1 2-0.1 1.1-0.2 2.1-0.2 1-0.5 2-0.2 0.9-0.6 1.9h-45.2q-0.7-1.9-1.1-3.9-0.3-2.1-0.3-4.1 0-2 0.3-4.1 0.4-2 1.1-3.9h45.2q0.4 1 0.6 1.9 0.3 1 0.5 2 0.1 1 0.2 2.1 0.1 1 0.1 2z"/>
		<path class="s2" d="m54.6 40c-1.6 4.7-4.7 8.7-8.8 11.6-4 2.8-8.8 4.4-13.8 4.4-5 0-9.8-1.6-13.8-4.4-4.1-2.9-7.2-6.9-8.8-11.6z"/>
	</g>
</svg>